<?xml version='1.0' encoding='UTF-8'?>
<svg x="0px" y="0px" viewBox="0 0 32 32" version="1.1" xmlns="http://www.w3.org/2000/svg" xmlns:xlink="http://www.w3.org/1999/xlink" xml:space="preserve" id="Blue_Data_Bar_Solid" style="enable-background:new 0 0 32 32">
  <style type="text/css">
	.Black{fill:#727272;}
	.Blue{fill:#1177D7;}
</style>
  <path d="M31,0H1C0.4,0,0,0.4,0,1v30c0,0.6,0.4,1,1,1h30c0.6,0,1-0.4,1-1V1C32,0.4,31.6,0,31,0z M30,30H2v-8h28V30z   M30,20H2v-8h28V20z M30,10H2V2h28V10z" class="Black" />
  <path d="M12,8H4V4h8V8z M20,14H4v4h16V14z M28,24H4v4h24V24z" class="Blue" />
</svg>